<svg width="366" height="254" viewBox="0 0 366 254" fill="none" xmlns="http://www.w3.org/2000/svg">
  <g>
    <path
      d="M236 118C236 183.17 182.67 224.5 117.5 224.5C52.3304 224.5 0 183.17 0 118C0 52.8304 52.8304 0 118 0C183.17 0 229 51 236 118Z"
      fill="#7DC301" />
  </g>
  <g>
    <path
      d="M176.278 211.808C158.928 220.064 138.849 224.5 117.5 224.5C111.687 224.5 105.976 224.171 100.395 223.526C127.829 220.809 166.36 209.444 189 177.5C218.2 136.3 209 79 201 55C227.5 96 226.5 151 212 176.5C204.169 190.271 189.063 202.994 176.278 211.808Z"
      fill="#488A05" />
    <path
      d="M70.0056 216.44C61.8115 213.462 54.1149 209.692 47.0405 205.185C62.2692 201.839 98.917 187.493 136 153.5C174.4 118.3 189.667 73.5 192.5 55.5C205.5 96 183.5 144.5 156 172.5C134.701 194.186 91.0651 210.436 70.0056 216.44Z"
      fill="#488A05" />
    <path
      d="M25.2835 186.784C21.9476 183.051 18.8958 179.067 16.1562 174.847C20.4573 157.292 38.7086 116.126 79 86.5C119.8 56.5 169.667 48.8333 187 50C175.833 62.1667 139.7 96.1001 104.5 124.5C69.5774 152.676 37.3451 177.604 25.2835 186.784Z"
      fill="#488A05" />
    <path
      d="M5.99271 154.183C2.15264 143.313 0.0532554 131.371 0.000976562 118.493C5.07549 93.2826 20.3156 56.0469 55.5 36.5C109.5 6.50003 168.5 26 182.5 39.5C164.5 32.5 116.7 26.4 69.5 58C27.0717 86.4054 10.2849 130.136 5.99271 154.183Z"
      fill="#488A05" />
    <path
      d="M105 5.00002C149.8 5.80002 177.167 23.1667 187 33.5C178.85 20.8809 174.042 16.1103 167.932 11.3081C153.104 4.02834 136.316 0 118 0C104.171 0 90.897 2.37901 78.5659 6.75011C86.9126 5.50284 95.7666 4.83514 105 5.00002Z"
      fill="#488A05" />
  </g>
  <g>
    <path
      d="M208 48C207.305 54.6072 196.134 59.0133 189.326 55.9058C182.518 52.7983 178.959 42.3604 183.5 36.5C187.459 30.8604 194 32.5 196.5 33C203.5 36 208.805 42.6072 208 48Z"
      fill="#926832" />
    <path
      d="M205.499 52.7076C206.603 51.9201 207.797 50.9372 208.5 50C208.737 49.6834 208.987 49.3668 209.25 49.0343C210.646 47.2665 212.396 45.0501 214.5 40C215.653 37.2326 215.955 34.8907 216.24 32.6799C216.574 30.0974 216.884 27.6938 218.5 25C221.5 20 224.5 17.5 230.5 18.5C235.3 19.3 237.833 24.8333 238.5 27.5C239 26.3333 239.9 23.6 239.5 22C239.077 20.3096 238.581 19.7596 237.594 18.6659C237.413 18.4656 237.216 18.2471 237 18C233.838 14.3863 232.716 14.0373 231.423 13.6349C231.285 13.5919 231.145 13.5483 231 13.5C230.826 13.442 230.643 13.3789 230.451 13.3127C227.683 12.3582 223.046 10.7594 216.5 14.5C210.9 17.7 207.5 25.5 206.5 29C206.468 29.2105 206.445 29.4405 206.422 29.682C206.204 31.9266 205.89 35.1669 196.5 33C203.5 36 208.806 42.6073 208 48C207.815 49.7585 206.888 51.3611 205.499 52.7076Z"
      fill="#926832" />
  </g>
  <g>
    <path
      d="M206.045 52.1386C202.537 54.5094 196.5 54 189 50.5C184.5 47.5 181.205 44.2853 182.126 39C179.943 44.9582 183.407 53.2035 189.327 55.9058C194.571 58.2998 202.406 56.2344 206.045 52.1386Z"
      fill="#755732" />

  </g>
  <g>
    <path
      d="M309.079 159.68C308.887 159.726 308.69 159.75 308.488 159.75C306.701 159.75 305.228 157.872 305.024 155.45L140 154C142.178 214.815 191.437 253.152 252.446 253.152C312.789 253.152 362.532 215.647 365.758 155.984L324.959 155.625C324.701 157.962 323.256 159.75 321.512 159.75C321.006 159.75 320.526 159.6 320.093 159.33C319.527 161.475 318.085 163 316.395 163C315.723 163 315.089 162.758 314.535 162.332C313.98 162.758 313.347 163 312.674 163C311.078 163 309.703 161.639 309.079 159.68Z"
      fill="#488A05" />

  </g>
  <g>
    <path
      d="M309.079 159.68C308.887 159.726 308.69 159.75 308.488 159.75C306.672 159.75 305.18 157.811 305.015 155.333L140 154C142.181 209.961 191.492 245.239 252.566 245.239C312.974 245.239 362.77 210.727 366 155.826L324.972 155.494C324.754 157.894 323.288 159.75 321.512 159.75C321.006 159.75 320.526 159.6 320.093 159.33C319.527 161.475 318.085 163 316.395 163C315.723 163 315.089 162.758 314.535 162.332C313.98 162.758 313.347 163 312.674 163C311.078 163 309.703 161.639 309.079 159.68Z"
      fill="#B1F23E" />

  </g>
  <g>
    <path
      d="M309.079 159.68C308.887 159.726 308.69 159.75 308.488 159.75C306.652 159.75 305.146 157.766 305.01 155.248L140 154C142.181 206.389 191.492 239.416 252.566 239.416C312.974 239.416 362.77 207.107 366 155.709L324.98 155.399C324.793 157.845 323.312 159.75 321.512 159.75C321.006 159.75 320.526 159.6 320.093 159.33C319.527 161.475 318.085 163 316.395 163C315.723 163 315.089 162.758 314.535 162.332C313.98 162.758 313.347 163 312.674 163C311.078 163 309.703 161.639 309.079 159.68Z"
      fill="#E30000" />
  </g>
  <g>
    <path
      d="M171.123 187.001C169.06 187.001 166.022 186.225 165.871 183.119C165.684 179.236 167.184 175.936 171.123 171.471C175.061 175.936 176.562 179.236 176.374 183.119C176.224 186.225 173.186 187.001 171.123 187.001Z"
      fill="black" />
    <path
      d="M334.877 187.001C332.814 187.001 329.775 186.225 329.625 183.119C329.438 179.236 330.938 175.936 334.877 171.471C338.815 175.936 340.316 179.236 340.128 183.119C339.978 186.225 336.94 187.001 334.877 187.001Z"
      fill="black" />
    <path
      d="M301.36 207.385C299.297 207.385 296.258 206.608 296.108 203.502C295.921 199.62 297.421 196.32 301.36 191.855C305.298 196.32 306.799 199.62 306.611 203.502C306.461 206.608 303.423 207.385 301.36 207.385Z"
      fill="black" />
    <path
      d="M269.758 215.15C267.695 215.15 264.657 214.373 264.507 211.267C264.319 207.385 265.82 204.085 269.758 199.62C273.697 204.085 275.197 207.385 275.01 211.267C274.86 214.373 271.821 215.15 269.758 215.15Z"
      fill="black" />
    <path
      d="M200.809 207.385C198.746 207.385 195.708 206.608 195.557 203.502C195.37 199.62 196.87 196.32 200.809 191.855C204.747 196.32 206.248 199.62 206.06 203.502C205.91 206.608 202.872 207.385 200.809 207.385Z"
      fill="black" />
    <path
      d="M235.284 215.15C233.22 215.15 230.182 214.373 230.032 211.267C229.845 207.385 231.345 204.085 235.284 199.62C239.222 204.085 240.723 207.385 240.535 211.267C240.385 214.373 237.347 215.15 235.284 215.15Z"
      fill="black" />

  </g>
</svg>